<?xml version="1.0" encoding="UTF-8"?>
<svg id="Layer_1" xmlns="http://www.w3.org/2000/svg" version="1.1" xmlns:xlink="http://www.w3.org/1999/xlink" viewBox="0 0 74.2 74.2">
  <!-- Generator: Adobe Illustrator 29.1.0, SVG Export Plug-In . SVG Version: 2.1.0 Build 142)  -->
  <defs>
    <style>
      .st0 {
        fill: url(#linear-gradient2);
      }

      .st1 {
        opacity: .6;
      }

      .st2 {
        stroke: url(#linear-gradient1);
      }

      .st2, .st3 {
        fill: none;
        stroke-miterlimit: 10;
        stroke-width: .2px;
      }

      .st3 {
        stroke: #000;
      }

      .st4 {
        fill: url(#linear-gradient4);
      }

      .st5 {
        opacity: .3;
      }

      .st6 {
        fill: url(#linear-gradient5);
      }

      .st7 {
        fill: url(#linear-gradient3);
      }

      .st8 {
        fill: url(#linear-gradient);
      }

      .st9 {
        opacity: .8;
      }
    </style>
    <linearGradient id="linear-gradient" x1="62.4" y1="756.5" x2="10.8" y2="704.9" gradientTransform="translate(0 -694.1)" gradientUnits="userSpaceOnUse">
      <stop offset="0" stop-color="#d8d8d8" stop-opacity=".5"/>
      <stop offset="0" stop-color="#dcdcdc" stop-opacity=".6"/>
      <stop offset=".1" stop-color="#e9e9e9" stop-opacity=".7"/>
      <stop offset=".2" stop-color="#f2f2f2" stop-opacity=".8"/>
      <stop offset=".3" stop-color="#f9f9f9" stop-opacity=".9"/>
      <stop offset=".4" stop-color="#fefefe" stop-opacity="1"/>
      <stop offset=".5" stop-color="#fff"/>
    </linearGradient>
    <linearGradient id="linear-gradient1" x1="54.9" y1="762.5" x2="18.3" y2="699" gradientTransform="translate(0 -694.1)" gradientUnits="userSpaceOnUse">
      <stop offset="0" stop-color="#bababa"/>
      <stop offset=".2" stop-color="#c2c2c2"/>
      <stop offset=".5" stop-color="#d6d6d6"/>
      <stop offset=".9" stop-color="#f8f8f8"/>
      <stop offset="1" stop-color="#fff"/>
    </linearGradient>
    <linearGradient id="linear-gradient2" x1="69.4" y1="738.7" x2="69.5" y2="723.7" gradientTransform="translate(-20.9 -715)" gradientUnits="userSpaceOnUse">
      <stop offset=".1" stop-color="#7c7c7c"/>
      <stop offset=".2" stop-color="#676767"/>
      <stop offset=".4" stop-color="#4a4a4a"/>
      <stop offset=".5" stop-color="#3f3f3f"/>
    </linearGradient>
    <linearGradient id="linear-gradient3" x1="90.8" y1="769" x2="61.5" y2="749.2" gradientTransform="translate(-20.9 -715)" gradientUnits="userSpaceOnUse">
      <stop offset="0" stop-color="#74b62d"/>
      <stop offset=".1" stop-color="#74b62d"/>
      <stop offset=".2" stop-color="#7bb937"/>
      <stop offset=".3" stop-color="#8cc351"/>
      <stop offset=".5" stop-color="#a9d27d"/>
      <stop offset=".6" stop-color="#d0e6b8"/>
      <stop offset=".8" stop-color="#fff"/>
    </linearGradient>
    <linearGradient id="linear-gradient4" x1="-918.6" y1="-436.3" x2="-918.5" y2="-451.3" gradientTransform="translate(-893.9 -386.7) rotate(-180)" gradientUnits="userSpaceOnUse">
      <stop offset=".1" stop-color="#7c7c7c"/>
      <stop offset=".2" stop-color="#676767"/>
      <stop offset=".4" stop-color="#4a4a4a"/>
      <stop offset=".5" stop-color="#3f3f3f"/>
    </linearGradient>
    <linearGradient id="linear-gradient5" x1="-861.8" y1="-353.5" x2="-891" y2="-373.4" gradientTransform="translate(-858.2 -334.9) rotate(-180)" gradientUnits="userSpaceOnUse">
      <stop offset="0" stop-color="#74b62d"/>
      <stop offset=".1" stop-color="#74b62d"/>
      <stop offset=".2" stop-color="#7bb937"/>
      <stop offset=".3" stop-color="#8cc351"/>
      <stop offset=".5" stop-color="#a9d27d"/>
      <stop offset=".6" stop-color="#d0e6b8"/>
      <stop offset=".8" stop-color="#fff"/>
    </linearGradient>
  </defs>
  <g>
    <g class="st5">
      <circle cx="37.6" cy="37.6" r="36.5"/>
      <circle class="st3" cx="37.6" cy="37.6" r="36.5"/>
    </g>
    <g>
      <circle class="st8" cx="36.6" cy="36.6" r="36.5"/>
      <circle class="st2" cx="36.6" cy="36.6" r="36.5"/>
    </g>
  </g>
  <g>
    <g class="st9">
      <path d="M45.1,34.2c1.6.2,13.9-9.4,15.6-12.1.2-.2.3-.5.2-.8-1-1.5-4.8-6.4-13.7-9.8.8,0-5.2-1.2-4.8-9.4h-7.7c-.3,0-.6.3-.6.6,1.7,8,2.3,16.2,1.6,24.4,0,.3.3.5.6.5,1.7,0,6.4.5,8.8,6.6Z"/>
    </g>
    <path class="st0" d="M46.1,33.2c1.6.2,13.9-9.4,15.6-12.1.2-.2.3-.5.2-.8-1-1.5-4.8-6.4-13.7-9.8.8,0-5.2-1.2-4.8-9.4h-7.7c-.3,0-.6.3-.6.6,1.7,8,2.3,16.2,1.6,24.4,0,.3.3.5.6.5,1.7,0,6.4.5,8.8,6.6Z"/>
  </g>
  <g>
    <g class="st1">
      <path d="M39.8,45.1c-.2,1.6,9.4,13.9,12.1,15.7.3,0,.5.3.8,0s6.4-4.8,9.8-13.6c0,.7,1.2-5.3,9.4-4.9v-7.6c0-.4-.3-.7-.6-.6-8,1.7-16.3,2.2-24.5,1.5-.3,0-.5.3-.5.6,0,1.7-.4,6.5-6.5,8.8Z"/>
    </g>
    <path class="st7" d="M39.8,46.1c-.2,1.6,9.4,13.9,12.1,15.7.3,0,.5.3.8,0s6.4-4.8,9.8-13.6c0,.7,1.2-5.3,9.4-4.9v-7.6c0-.4-.3-.7-.6-.6-8,1.7-16.3,2.2-24.5,1.5-.3,0-.5.3-.5.6,0,1.7-.4,6.5-6.5,8.8Z"/>
  </g>
  <g>
    <g class="st9">
      <path d="M28,39c-1.6,0-13.9,9.4-15.7,12.1-.1.3-.3.6-.1.8s4.8,6.5,13.6,9.8c-.7,0,5.3,1.3,4.9,9.4h7.6c.4,0,.7-.3.6-.6-1.7-8-2.2-16.2-1.5-24.4,0-.3-.3-.6-.6-.6s-6.5-.4-8.8-6.5Z"/>
    </g>
    <path class="st4" d="M27,40c-1.6,0-13.9,9.4-15.7,12.1-.1.3-.3.6-.1.8s4.8,6.5,13.6,9.8c-.7,0,5.3,1.3,4.9,9.4h7.6c.4,0,.7-.3.6-.6-1.7-8-2.2-16.2-1.5-24.4,0-.3-.3-.6-.6-.6s-6.5-.4-8.8-6.5Z"/>
  </g>
  <g>
    <g class="st1">
      <path d="M33.5,27.4c.2-1.6-9.4-13.8-12.1-15.6-.2-.2-.5-.3-.8-.2-1.5,1-6.4,4.8-9.8,13.7,0-.8-1.2,5.2-9.4,4.8v7.7c0,.3.3.6.6.6,8-1.7,16.3-2.3,24.5-1.6.3,0,.5-.3.5-.6-.1-1.7.4-6.4,6.5-8.8Z"/>
    </g>
    <path class="st6" d="M33.5,26.4c.2-1.6-9.4-13.8-12.1-15.6-.2-.2-.5-.3-.8-.2-1.5,1-6.4,4.8-9.8,13.7,0-.8-1.2,5.2-9.4,4.8v7.7c0,.3.3.6.6.6,8-1.7,16.3-2.3,24.5-1.6.3,0,.5-.3.5-.6-.1-1.7.4-6.4,6.5-8.8Z"/>
  </g>
</svg>